<?xml version="1.0" encoding="UTF-8" standalone="no"?>
<svg
   width="512"
   height="512"
   viewBox="-40 -250 512 512"
   version="1.1"
   id="svg90"
   sodipodi:docname="grid_3.svg"
   inkscape:version="1.1.2 (0a00cf5339, 2022-02-04)"
   xmlns:inkscape="http://www.inkscape.org/namespaces/inkscape"
   xmlns:sodipodi="http://sodipodi.sourceforge.net/DTD/sodipodi-0.dtd"
   xmlns="http://www.w3.org/2000/svg"
   xmlns:svg="http://www.w3.org/2000/svg">
  <sodipodi:namedview
     id="namedview92"
     pagecolor="#ffffff"
     bordercolor="#666666"
     borderopacity="1.0"
     inkscape:pageshadow="2"
     inkscape:pageopacity="0.0"
     inkscape:pagecheckerboard="0"
     showgrid="false"
     inkscape:zoom="1.4296875"
     inkscape:cx="76.939891"
     inkscape:cy="256.34973"
     inkscape:window-width="1920"
     inkscape:window-height="939"
     inkscape:window-x="0"
     inkscape:window-y="34"
     inkscape:window-maximized="1"
     inkscape:current-layer="svg90" />
  <defs
     id="defs2" />
  <path
     d="M10.870117240347414,244.758739478657 L394.4299684354626,-3.108624468950438e-14"
     stroke="black"
     id="path4" />
  <path
     d="M9.317243348869212,209.7932052674203 L392.8770945439844,-34.96553421123676"
     stroke="black"
     id="path6" />
  <path
     d="M7.764369457391009,174.8276710561836 L391.3242206525062,-69.93106842247344"
     stroke="black"
     id="path8" />
  <path
     d="M6.2114955659128075,139.86213684494686 L389.771346761028,-104.89660263371017"
     stroke="black"
     id="path10" />
  <path
     d="M4.658621674434606,104.89660263371015 L388.21847286954977,-139.8621368449469"
     stroke="black"
     id="path12" />
  <path
     d="M3.1057477829564037,69.93106842247343 L386.6655989780716,-174.82767105618362"
     stroke="black"
     id="path14" />
  <path
     d="M1.5528738914782019,34.965534211236715 L385.1127250865934,-209.79320526742032"
     stroke="black"
     id="path16" />
  <path
     d="M0.0,-0.0 L383.5598511951152,-244.75873947865705"
     stroke="black"
     id="path18" />
  <path
     d="M10.870117240347414,244.758739478657 L0.0,-0.0"
     stroke="black"
     id="path20" />
  <path
     d="M40.3747211784332,225.93114413414492 L29.504603938085783,-18.82759534451208"
     stroke="black"
     id="path22" />
  <path
     d="M69.87932511651898,207.10354878963284 L59.009207876171565,-37.65519068902416"
     stroke="black"
     id="path24" />
  <path
     d="M99.38392905460476,188.27595344512076 L88.51381181425735,-56.482786033536236"
     stroke="black"
     id="path26" />
  <path
     d="M128.88853299269056,169.4483581006087 L118.01841575234313,-75.31038137804832"
     stroke="black"
     id="path28" />
  <path
     d="M158.39313693077634,150.6207627560966 L147.52301969042892,-94.13797672256041"
     stroke="black"
     id="path30" />
  <path
     d="M187.89774086886212,131.79316741158453 L177.0276236285147,-112.96557206707247"
     stroke="black"
     id="path32" />
  <path
     d="M217.4023448069479,112.96557206707246 L206.53222756660048,-131.79316741158453"
     stroke="black"
     id="path34" />
  <path
     d="M246.90694874503367,94.13797672256037 L236.03683150468626,-150.62076275609664"
     stroke="black"
     id="path36" />
  <path
     d="M276.41155268311945,75.31038137804829 L265.54143544277207,-169.44835810060871"
     stroke="black"
     id="path38" />
  <path
     d="M305.91615662120523,56.4827860335362 L295.04603938085785,-188.27595344512082"
     stroke="black"
     id="path40" />
  <path
     d="M335.420760559291,37.655190689024145 L324.5506433189436,-207.10354878963287"
     stroke="black"
     id="path42" />
  <path
     d="M364.92536449737685,18.827595344512055 L354.0552472570294,-225.93114413414494"
     stroke="black"
     id="path44" />
  <path
     d="M394.4299684354626,-3.108624468950438e-14 L383.5598511951152,-244.75873947865705"
     stroke="black"
     id="path46" />
  <path
     d="M10.870117240347414,244.758739478657 L10.870117240347414,244.758739478657"
     stroke="black"
     id="path48" />
  <path
     d="M9.317243348869212,209.7932052674203 L40.3747211784332,225.93114413414492"
     stroke="black"
     id="path50" />
  <path
     d="M7.764369457391009,174.8276710561836 L69.87932511651898,207.10354878963284"
     stroke="black"
     id="path52" />
  <path
     d="M6.2114955659128075,139.86213684494686 L99.38392905460476,188.27595344512076"
     stroke="black"
     id="path54" />
  <path
     d="M4.658621674434606,104.89660263371015 L128.88853299269056,169.4483581006087"
     stroke="black"
     id="path56" />
  <path
     d="M3.1057477829564037,69.93106842247343 L158.39313693077634,150.6207627560966"
     stroke="black"
     id="path58" />
  <path
     d="M1.5528738914782019,34.965534211236715 L187.89774086886212,131.79316741158453"
     stroke="black"
     id="path60" />
  <path
     d="M0.0,-0.0 L217.4023448069479,112.96557206707246"
     stroke="black"
     id="path62" />
  <path
     d="M29.504603938085783,-18.82759534451208 L246.90694874503367,94.13797672256037"
     stroke="black"
     id="path64" />
  <path
     d="M59.009207876171565,-37.65519068902416 L276.41155268311945,75.31038137804829"
     stroke="black"
     id="path66" />
  <path
     d="M88.51381181425735,-56.482786033536236 L305.91615662120523,56.4827860335362"
     stroke="black"
     id="path68" />
  <path
     d="M118.01841575234313,-75.31038137804832 L335.420760559291,37.655190689024145"
     stroke="black"
     id="path70" />
  <path
     d="M147.52301969042892,-94.13797672256041 L364.92536449737685,18.827595344512055"
     stroke="black"
     id="path72" />
  <path
     d="M177.0276236285147,-112.96557206707247 L394.4299684354626,-3.108624468950438e-14"
     stroke="black"
     id="path74" />
  <path
     d="M206.53222756660048,-131.79316741158453 L392.8770945439844,-34.96553421123676"
     stroke="black"
     id="path76" />
  <path
     d="M236.03683150468626,-150.62076275609664 L391.3242206525062,-69.93106842247344"
     stroke="black"
     id="path78" />
  <path
     d="M265.54143544277207,-169.44835810060871 L389.771346761028,-104.89660263371017"
     stroke="black"
     id="path80" />
  <path
     d="M295.04603938085785,-188.27595344512082 L388.21847286954977,-139.8621368449469"
     stroke="black"
     id="path82" />
  <path
     d="M324.5506433189436,-207.10354878963287 L386.6655989780716,-174.82767105618362"
     stroke="black"
     id="path84" />
  <path
     d="M354.0552472570294,-225.93114413414494 L385.1127250865934,-209.79320526742032"
     stroke="black"
     id="path86" />
  <path
     d="M383.5598511951152,-244.75873947865705 L383.5598511951152,-244.75873947865705"
     stroke="black"
     id="path88" />
  <path
     d="M0,243.94819 L0,-223.75146"
     stroke="black"
     id="path90" />
  <path
     d="M-36.247204,0 L439.23111,0"
     stroke="black"
     id="path92" />
  <text
     xml:space="preserve"
     style="font-size:24px;line-height:1.25;font-family:'Cambria Math';-inkscape-font-specification:'Cambria Math, Normal';font-variant-ligatures:none;white-space:pre;inline-size:0"
     x="-44.426018"
     y="99.585541"
     id="text3220"
     transform="translate(26.211066,27.805084)"><tspan
       id="tspan3218"
       x="-44.426018"
       y="99.585541"
       style="font-style:italic">n</tspan></text>
  <text
     xml:space="preserve"
     style="font-size:24px;line-height:1.25;font-family:'Cambria Math';-inkscape-font-specification:'Cambria Math, Normal';font-variant-ligatures:none"
     x="233.9247"
     y="127.39062"
     id="text19186"><tspan
       sodipodi:role="line"
       id="tspan19184"
       x="233.9247"
       y="127.39062"
       style="font-style:italic">m</tspan></text>
  <text
     xml:space="preserve"
     style="font-size:24px;line-height:1.25;font-family:'Cambria Math';-inkscape-font-specification:'Cambria Math, Normal';font-variant-ligatures:none"
     x="-19.603706"
     y="19.880245"
     id="text1860"><tspan
       sodipodi:role="line"
       id="tspan1858"
       x="-19.603706"
       y="19.880245"
       style="font-style:italic;font-weight:bold">O</tspan></text>
</svg>
