<?xml version="1.0" encoding="UTF-8"?>
<svg width="512" height="512" version="1.1" viewBox="-40 -250 512 512" xmlns="http://www.w3.org/2000/svg">
 <g transform="matrix(-1 0 0 1 384.64 0)">
  <circle cx="59.41" cy="-154.54" r="50" fill="#ffaf00" stroke="#000"/>
  <circle cx="46.223" cy="-169.31" r="17" fill="#ffd600"/>
  <circle cx="325.23" cy="154.12" r="50" fill="#ffaf00" stroke="#000"/>
  <circle cx="312.05" cy="139.35" r="17" fill="#ffd600"/>
 </g>
 <path d="m326.57-104.39c-8.6602 32.237-17.32 64.473-54.408 85.383s-102.6 30.495-137.04 51.371c-34.439 20.876-37.803 53.04-41.167 85.204" fill="none" stroke="#000" stroke-width="1px"/>
 <path d="m291.11-118.47c-8.6602 32.237-17.32 64.473-54.408 85.383s-102.6 30.495-137.04 51.371c-34.439 20.876-37.803 53.04-41.167 85.204" fill="none" stroke="#000" stroke-width="1px"/>
 <path d="m93.29 115.37c0-0.30972 0.49604-4.6497 1.1023-9.6444 3.7921-31.241 10.747-48.242 25.672-62.756 14.281-13.888 30.279-21.162 80.463-36.585 60.745-18.669 74.714-25.081 92.038-42.247 14.119-13.99 23.087-31.684 31.113-61.387l1.8202-6.7363-3.7723-0.0108c-8.0362-0.0229-19.844-4.2777-26.872-9.6825l-3.437-2.6434-0.80496 3.0733c-8.3593 31.915-17.267 49.914-31.987 64.633-16.132 16.13-32.891 24.191-80.913 38.917-58.411 17.911-71.802 23.398-87.125 35.696-17.822 14.304-26.279 33.652-30.325 69.374l-0.92788 8.1928 3.687 0.0108c7.9627 0.0232 19.792 4.3031 26.809 9.6995 1.9025 1.4632 3.4592 2.4069 3.4592 2.0972z" fill="#00ff21" stroke-width="0"/>
  <rect x="249.97" y="131.6" width="200" height="25" fill="#8a8a8a"/>
  <rect x="335.07" y="37.087" width="25" height="200" fill="#8a8a8a"/>
  <rect x="236.47" y="119.78" width="200" height="25" fill="#ff0a00"/>
  <rect x="323.5" y="27.935" width="25" height="200" fill="#f00"/>
</svg>
